<svg width="190" height="57" viewBox="0 0 190 57" fill="none" xmlns="http://www.w3.org/2000/svg">
<path d="M30.55 56H0.53V0.699996H7.087V55.21H30.55V56ZM32.9725 29.693C32.9725 20.1077 35.2898 12.8397 39.9245 7.889C44.6118 2.88566 50.6158 0.383996 57.9365 0.383996C65.2571 0.383996 71.0768 2.54333 75.3955 6.862C79.7668 11.1807 81.9525 18.08 81.9525 27.56C81.9525 37.04 79.6351 44.2027 75.0005 49.048C70.3658 53.8933 64.1775 56.316 56.4355 56.316C49.7468 56.316 44.2695 54.3937 40.0035 50.549C37.7915 48.5477 36.0535 45.7827 34.7895 42.254C33.5781 38.6727 32.9725 34.4857 32.9725 29.693ZM57.6995 1.174C52.3801 1.174 48.0088 3.544 44.5855 8.284C41.2148 13.024 39.5295 19.976 39.5295 29.14C39.5295 38.304 41.1358 44.9927 44.3485 49.206C47.5611 53.4193 51.8271 55.526 57.1465 55.526C62.5185 55.526 66.8898 53.156 70.2605 48.416C73.6838 43.6233 75.3955 36.6977 75.3955 27.639C75.3955 18.5277 73.7628 11.839 70.4975 7.573C67.2848 3.307 63.0188 1.174 57.6995 1.174ZM116.63 56.316C106.782 56.316 99.4874 53.5247 94.7474 47.942C93.062 45.9407 91.6927 43.281 90.6394 39.963C89.586 36.645 89.0594 32.616 89.0594 27.876C89.0594 23.136 89.823 18.8963 91.3504 15.157C92.9304 11.365 95.0634 8.442 97.7494 6.388C102.963 2.54333 109.257 0.620997 116.63 0.620997C119 0.620997 121.318 0.805331 123.582 1.174C125.847 1.49 127.532 1.83233 128.638 2.201L130.297 2.754L130.06 3.544C125.952 2.122 121.476 1.411 116.63 1.411C111.048 1.411 106.387 3.228 102.647 6.862C99.8034 9.548 97.802 13.498 96.6434 18.712C95.9587 21.6613 95.6164 25.269 95.6164 29.535C95.6164 33.801 96.222 37.751 97.4334 41.385C98.6447 44.9663 100.014 47.626 101.541 49.364C103.121 51.102 105.017 52.4977 107.229 53.551C109.441 54.5517 111.206 55.131 112.522 55.289C113.839 55.447 115.393 55.526 117.183 55.526C119.027 55.526 121.476 55.3153 124.53 54.894V38.62H114.971V37.83H134.484V38.62H131.087V54.183C127.085 55.605 122.266 56.316 116.63 56.316ZM140.363 29.693C140.363 20.1077 142.68 12.8397 147.315 7.889C152.002 2.88566 158.006 0.383996 165.327 0.383996C172.648 0.383996 178.467 2.54333 182.786 6.862C187.157 11.1807 189.343 18.08 189.343 27.56C189.343 37.04 187.026 44.2027 182.391 49.048C177.756 53.8933 171.568 56.316 163.826 56.316C157.137 56.316 151.66 54.3937 147.394 50.549C145.182 48.5477 143.444 45.7827 142.18 42.254C140.969 38.6727 140.363 34.4857 140.363 29.693ZM165.09 1.174C159.771 1.174 155.399 3.544 151.976 8.284C148.605 13.024 146.92 19.976 146.92 29.14C146.92 38.304 148.526 44.9927 151.739 49.206C154.952 53.4193 159.218 55.526 164.537 55.526C169.909 55.526 174.28 53.156 177.651 48.416C181.074 43.6233 182.786 36.6977 182.786 27.639C182.786 18.5277 181.153 11.839 177.888 7.573C174.675 3.307 170.409 1.174 165.09 1.174Z" fill="black"/>
</svg>
